<mxfile host="embed.diagrams.net" modified="2024-03-18T15:53:23.002Z" agent="Mozilla/5.0 (X11; Linux x86_64; rv:123.0) Gecko/20100101 Firefox/123.0" etag="WnaOXq3FKwLk5mSMooC6" version="24.0.7" type="embed">
  <diagram name="Page-1" id="5f0bae14-7c28-e335-631c-24af17079c00">
    <mxGraphModel grid="1" page="1" gridSize="10" guides="1" tooltips="1" connect="1" arrows="1" fold="1" pageScale="1" pageWidth="1100" pageHeight="850" background="none" math="0" shadow="0">
      <root>
        <mxCell id="0" />
        <mxCell id="1" parent="0" />
        <mxCell id="3c6Egb_IVi21xw1lHmp9-30" style="edgeStyle=orthogonalEdgeStyle;rounded=0;orthogonalLoop=1;jettySize=auto;html=1;endArrow=none;endFill=0;" edge="1" parent="1" source="3c6Egb_IVi21xw1lHmp9-20" target="39150e848f15840c-3">
          <mxGeometry relative="1" as="geometry" />
        </mxCell>
        <mxCell id="39150e848f15840c-1" value="C01" style="verticalAlign=top;align=left;spacingTop=8;spacingLeft=2;spacingRight=12;shape=cube;size=10;direction=south;fontStyle=4;html=1;rounded=0;shadow=0;comic=0;labelBackgroundColor=none;strokeWidth=1;fontFamily=Verdana;fontSize=12" vertex="1" parent="1">
          <mxGeometry x="185" y="175" width="360" height="130" as="geometry" />
        </mxCell>
        <mxCell id="39150e848f15840c-3" value="C03" style="verticalAlign=top;align=left;spacingTop=8;spacingLeft=2;spacingRight=12;shape=cube;size=10;direction=south;fontStyle=4;html=1;rounded=0;shadow=0;comic=0;labelBackgroundColor=none;strokeWidth=1;fontFamily=Verdana;fontSize=12" vertex="1" parent="1">
          <mxGeometry x="685" y="365" width="210" height="100" as="geometry" />
        </mxCell>
        <mxCell id="39150e848f15840c-5" value="Core" style="shape=component;align=left;spacingLeft=36;rounded=0;shadow=0;comic=0;labelBackgroundColor=none;strokeWidth=1;fontFamily=Verdana;fontSize=12;html=1;" vertex="1" parent="1">
          <mxGeometry x="335" y="215" width="120" height="60" as="geometry" />
        </mxCell>
        <mxCell id="39150e848f15840c-6" value="" style="ellipse;whiteSpace=wrap;html=1;rounded=0;shadow=0;comic=0;labelBackgroundColor=none;strokeWidth=1;fontFamily=Verdana;fontSize=12;align=center;" vertex="1" parent="1">
          <mxGeometry x="485" y="235" width="20" height="20" as="geometry" />
        </mxCell>
        <mxCell id="39150e848f15840c-10" value="Vending" style="shape=component;align=left;spacingLeft=36;rounded=0;shadow=0;comic=0;labelBackgroundColor=none;strokeWidth=1;fontFamily=Verdana;fontSize=12;html=1;" vertex="1" parent="1">
          <mxGeometry x="745" y="396" width="120" height="60" as="geometry" />
        </mxCell>
        <mxCell id="39150e848f15840c-14" style="edgeStyle=elbowEdgeStyle;rounded=0;html=1;labelBackgroundColor=none;startArrow=none;startFill=0;startSize=8;endArrow=none;endFill=0;endSize=16;fontFamily=Verdana;fontSize=12;entryX=1;entryY=0.5;entryDx=0;entryDy=0;" edge="1" parent="1" source="39150e848f15840c-6" target="39150e848f15840c-5">
          <mxGeometry relative="1" as="geometry" />
        </mxCell>
        <mxCell id="39150e848f15840c-15" style="edgeStyle=orthogonalEdgeStyle;rounded=0;html=1;labelBackgroundColor=none;startArrow=none;startFill=0;startSize=8;endArrow=open;endFill=0;endSize=16;fontFamily=Verdana;fontSize=12;dashed=1;entryX=1;entryY=0.5;entryDx=0;entryDy=0;entryPerimeter=0;exitX=0.142;exitY=0.5;exitDx=0;exitDy=0;exitPerimeter=0;" edge="1" parent="1" source="39150e848f15840c-5" target="3c6Egb_IVi21xw1lHmp9-1">
          <mxGeometry relative="1" as="geometry">
            <mxPoint x="280" y="255" as="targetPoint" />
          </mxGeometry>
        </mxCell>
        <mxCell id="3c6Egb_IVi21xw1lHmp9-1" value="DB1" style="shape=cylinder3;whiteSpace=wrap;html=1;boundedLbl=1;backgroundOutline=1;size=15;" vertex="1" parent="1">
          <mxGeometry x="215" y="210" width="50" height="70" as="geometry" />
        </mxCell>
        <mxCell id="3c6Egb_IVi21xw1lHmp9-28" style="edgeStyle=orthogonalEdgeStyle;rounded=0;orthogonalLoop=1;jettySize=auto;html=1;endArrow=none;endFill=0;" edge="1" parent="1" source="3c6Egb_IVi21xw1lHmp9-9" target="39150e848f15840c-3">
          <mxGeometry relative="1" as="geometry">
            <Array as="points">
              <mxPoint x="615" y="450" />
              <mxPoint x="615" y="450" />
            </Array>
          </mxGeometry>
        </mxCell>
        <mxCell id="3c6Egb_IVi21xw1lHmp9-29" style="edgeStyle=orthogonalEdgeStyle;rounded=0;orthogonalLoop=1;jettySize=auto;html=1;endArrow=none;endFill=0;" edge="1" parent="1" source="3c6Egb_IVi21xw1lHmp9-9" target="3c6Egb_IVi21xw1lHmp9-20">
          <mxGeometry relative="1" as="geometry">
            <Array as="points">
              <mxPoint x="615" y="390" />
              <mxPoint x="615" y="230" />
            </Array>
          </mxGeometry>
        </mxCell>
        <mxCell id="3c6Egb_IVi21xw1lHmp9-9" value="C02" style="verticalAlign=top;align=left;spacingTop=8;spacingLeft=2;spacingRight=12;shape=cube;size=10;direction=south;fontStyle=4;html=1;rounded=0;shadow=0;comic=0;labelBackgroundColor=none;strokeWidth=1;fontFamily=Verdana;fontSize=12" vertex="1" parent="1">
          <mxGeometry x="185" y="350" width="360" height="130" as="geometry" />
        </mxCell>
        <mxCell id="3c6Egb_IVi21xw1lHmp9-10" value="Integration" style="shape=component;align=left;spacingLeft=36;rounded=0;shadow=0;comic=0;labelBackgroundColor=none;strokeWidth=1;fontFamily=Verdana;fontSize=12;html=1;" vertex="1" parent="1">
          <mxGeometry x="335" y="395" width="120" height="60" as="geometry" />
        </mxCell>
        <mxCell id="3c6Egb_IVi21xw1lHmp9-11" value="" style="ellipse;whiteSpace=wrap;html=1;rounded=0;shadow=0;comic=0;labelBackgroundColor=none;strokeWidth=1;fontFamily=Verdana;fontSize=12;align=center;" vertex="1" parent="1">
          <mxGeometry x="485" y="415" width="20" height="20" as="geometry" />
        </mxCell>
        <mxCell id="3c6Egb_IVi21xw1lHmp9-12" style="edgeStyle=elbowEdgeStyle;rounded=0;html=1;labelBackgroundColor=none;startArrow=none;startFill=0;startSize=8;endArrow=none;endFill=0;endSize=16;fontFamily=Verdana;fontSize=12;" edge="1" parent="1" source="3c6Egb_IVi21xw1lHmp9-11" target="3c6Egb_IVi21xw1lHmp9-10">
          <mxGeometry relative="1" as="geometry" />
        </mxCell>
        <mxCell id="3c6Egb_IVi21xw1lHmp9-13" style="edgeStyle=orthogonalEdgeStyle;rounded=0;html=1;labelBackgroundColor=none;startArrow=none;startFill=0;startSize=8;endArrow=open;endFill=0;endSize=16;fontFamily=Verdana;fontSize=12;dashed=1;entryX=1;entryY=0.5;entryDx=0;entryDy=0;entryPerimeter=0;exitX=0.128;exitY=0.5;exitDx=0;exitDy=0;exitPerimeter=0;" edge="1" parent="1" source="3c6Egb_IVi21xw1lHmp9-10" target="3c6Egb_IVi21xw1lHmp9-14">
          <mxGeometry relative="1" as="geometry">
            <mxPoint x="240" y="450" as="targetPoint" />
          </mxGeometry>
        </mxCell>
        <mxCell id="3c6Egb_IVi21xw1lHmp9-14" value="DB2" style="shape=cylinder3;whiteSpace=wrap;html=1;boundedLbl=1;backgroundOutline=1;size=15;" vertex="1" parent="1">
          <mxGeometry x="215" y="390" width="50" height="70" as="geometry" />
        </mxCell>
        <mxCell id="39150e848f15840c-12" style="edgeStyle=none;rounded=0;html=1;dashed=1;labelBackgroundColor=none;startArrow=none;startFill=0;startSize=8;endArrow=open;endFill=0;endSize=16;fontFamily=Verdana;fontSize=12;entryX=1;entryY=0.5;entryDx=0;entryDy=0;exitX=0;exitY=0.5;exitDx=0;exitDy=0;" edge="1" parent="1" source="3c6Egb_IVi21xw1lHmp9-18" target="3c6Egb_IVi21xw1lHmp9-11">
          <mxGeometry relative="1" as="geometry">
            <mxPoint x="767.4738324526252" y="249.6891771061155" as="targetPoint" />
          </mxGeometry>
        </mxCell>
        <mxCell id="3c6Egb_IVi21xw1lHmp9-15" style="edgeStyle=none;rounded=0;html=1;dashed=1;labelBackgroundColor=none;startArrow=none;startFill=0;startSize=8;endArrow=open;endFill=0;endSize=16;fontFamily=Verdana;fontSize=12;entryX=0.5;entryY=1;entryDx=0;entryDy=0;exitX=0.5;exitY=0;exitDx=0;exitDy=0;" edge="1" parent="1" source="3c6Egb_IVi21xw1lHmp9-11" target="39150e848f15840c-6">
          <mxGeometry relative="1" as="geometry">
            <mxPoint x="735" y="375" as="sourcePoint" />
            <mxPoint x="515" y="425" as="targetPoint" />
          </mxGeometry>
        </mxCell>
        <mxCell id="3c6Egb_IVi21xw1lHmp9-18" value="" style="ellipse;whiteSpace=wrap;html=1;rounded=0;shadow=0;comic=0;labelBackgroundColor=none;strokeWidth=1;fontFamily=Verdana;fontSize=12;align=center;" vertex="1" parent="1">
          <mxGeometry x="705" y="416" width="20" height="20" as="geometry" />
        </mxCell>
        <mxCell id="3c6Egb_IVi21xw1lHmp9-19" style="edgeStyle=elbowEdgeStyle;rounded=0;html=1;labelBackgroundColor=none;startArrow=none;startFill=0;startSize=8;endArrow=none;endFill=0;endSize=16;fontFamily=Verdana;fontSize=12;exitX=1;exitY=0.5;exitDx=0;exitDy=0;entryX=0.143;entryY=0.507;entryDx=0;entryDy=0;entryPerimeter=0;" edge="1" parent="1" source="3c6Egb_IVi21xw1lHmp9-18" target="39150e848f15840c-10">
          <mxGeometry relative="1" as="geometry">
            <mxPoint x="675" y="426" as="targetPoint" />
          </mxGeometry>
        </mxCell>
        <mxCell id="3c6Egb_IVi21xw1lHmp9-20" value="C04" style="verticalAlign=top;align=left;spacingTop=8;spacingLeft=2;spacingRight=12;shape=cube;size=10;direction=south;fontStyle=4;html=1;rounded=0;shadow=0;comic=0;labelBackgroundColor=none;strokeWidth=1;fontFamily=Verdana;fontSize=12" vertex="1" parent="1">
          <mxGeometry x="685" y="180" width="210" height="100" as="geometry" />
        </mxCell>
        <mxCell id="3c6Egb_IVi21xw1lHmp9-21" value="Frotend" style="shape=component;align=left;spacingLeft=36;rounded=0;shadow=0;comic=0;labelBackgroundColor=none;strokeWidth=1;fontFamily=Verdana;fontSize=12;html=1;" vertex="1" parent="1">
          <mxGeometry x="745" y="205" width="120" height="60" as="geometry" />
        </mxCell>
        <mxCell id="3c6Egb_IVi21xw1lHmp9-22" value="" style="ellipse;whiteSpace=wrap;html=1;rounded=0;shadow=0;comic=0;labelBackgroundColor=none;strokeWidth=1;fontFamily=Verdana;fontSize=12;align=center;" vertex="1" parent="1">
          <mxGeometry x="705" y="225" width="20" height="20" as="geometry" />
        </mxCell>
        <mxCell id="3c6Egb_IVi21xw1lHmp9-23" style="edgeStyle=elbowEdgeStyle;rounded=0;html=1;labelBackgroundColor=none;startArrow=none;startFill=0;startSize=8;endArrow=none;endFill=0;endSize=16;fontFamily=Verdana;fontSize=12;exitX=1;exitY=0.5;exitDx=0;exitDy=0;entryX=0.143;entryY=0.507;entryDx=0;entryDy=0;entryPerimeter=0;" edge="1" parent="1" source="3c6Egb_IVi21xw1lHmp9-22" target="3c6Egb_IVi21xw1lHmp9-21">
          <mxGeometry relative="1" as="geometry">
            <mxPoint x="675" y="235" as="targetPoint" />
          </mxGeometry>
        </mxCell>
        <mxCell id="3c6Egb_IVi21xw1lHmp9-24" style="edgeStyle=none;rounded=0;html=1;dashed=1;labelBackgroundColor=none;startArrow=none;startFill=0;startSize=8;endArrow=open;endFill=0;endSize=16;fontFamily=Verdana;fontSize=12;entryX=1;entryY=0;entryDx=0;entryDy=0;exitX=0;exitY=0.5;exitDx=0;exitDy=0;" edge="1" parent="1" source="3c6Egb_IVi21xw1lHmp9-22" target="3c6Egb_IVi21xw1lHmp9-11">
          <mxGeometry relative="1" as="geometry">
            <mxPoint x="715" y="436" as="sourcePoint" />
            <mxPoint x="515" y="435" as="targetPoint" />
          </mxGeometry>
        </mxCell>
        <mxCell id="3c6Egb_IVi21xw1lHmp9-25" style="edgeStyle=none;rounded=0;html=1;dashed=1;labelBackgroundColor=none;startArrow=none;startFill=0;startSize=8;endArrow=open;endFill=0;endSize=16;fontFamily=Verdana;fontSize=12;exitX=0.5;exitY=1;exitDx=0;exitDy=0;entryX=0.5;entryY=1;entryDx=0;entryDy=0;" edge="1" parent="1" source="3c6Egb_IVi21xw1lHmp9-22" target="3c6Egb_IVi21xw1lHmp9-18">
          <mxGeometry relative="1" as="geometry">
            <mxPoint x="715" y="255" as="sourcePoint" />
            <mxPoint x="715" y="446" as="targetPoint" />
            <Array as="points">
              <mxPoint x="715" y="300" />
              <mxPoint x="915" y="300" />
              <mxPoint x="915" y="400" />
              <mxPoint x="915" y="490" />
              <mxPoint x="835" y="490" />
              <mxPoint x="715" y="490" />
            </Array>
          </mxGeometry>
        </mxCell>
        <mxCell id="3c6Egb_IVi21xw1lHmp9-27" style="edgeStyle=orthogonalEdgeStyle;rounded=0;orthogonalLoop=1;jettySize=auto;html=1;entryX=0;entryY=0.5;entryDx=0;entryDy=0;entryPerimeter=0;endArrow=none;endFill=0;" edge="1" parent="1" source="39150e848f15840c-1" target="3c6Egb_IVi21xw1lHmp9-9">
          <mxGeometry relative="1" as="geometry" />
        </mxCell>
      </root>
    </mxGraphModel>
  </diagram>
</mxfile>
